<svg width="40" height="41" viewBox="0 0 40 41" fill="none" xmlns="http://www.w3.org/2000/svg">
<g opacity="0.1">
<path d="M33.3333 31.9163V36.9163L6.66666 36.9163L6.66666 31.9163C6.66666 27.2023 6.66666 24.8453 8.13113 23.3808C9.5956 21.9163 11.9526 21.9163 16.6667 21.9163L20 25.2497L23.3333 21.9163C28.0474 21.9163 30.4044 21.9163 31.8689 23.3808C33.3333 24.8453 33.3333 27.2023 33.3333 31.9163Z" fill="white"/>
<path d="M25.8333 9.41634L25.8333 11.083C25.8333 14.3047 23.2217 16.9163 20 16.9163C16.7783 16.9163 14.1667 14.3047 14.1667 11.083V9.41634C14.1667 6.19468 16.7783 3.58301 20 3.58301C23.2217 3.58301 25.8333 6.19468 25.8333 9.41634Z" fill="white"/>
</g>
<path d="M16.5752 20.6665H16.6667C16.9982 20.6665 17.3161 20.7982 17.5505 21.0326L20 23.4821L22.4495 21.0326C22.6839 20.7982 23.0018 20.6665 23.3333 20.6665H23.4248C25.7041 20.6665 27.5413 20.6665 28.9863 20.8607C30.4864 21.0624 31.7496 21.4939 32.7527 22.4971C33.7559 23.5003 34.1874 24.7634 34.3891 26.2636C34.5834 27.7085 34.5834 29.5458 34.5833 31.8251V36.9165C34.5833 37.6069 34.0237 38.1665 33.3333 38.1665C32.643 38.1665 32.0833 37.6069 32.0833 36.9165V31.9165C32.0833 29.5242 32.0807 27.8556 31.9114 26.5967C31.747 25.3738 31.4463 24.7261 30.985 24.2649C30.5237 23.8036 29.8761 23.5029 28.6531 23.3384C27.4871 23.1817 25.9696 23.1678 23.851 23.1666L20.8839 26.1337C20.3957 26.6219 19.6043 26.6219 19.1161 26.1337L16.149 23.1666C14.0304 23.1678 12.5129 23.1817 11.3469 23.3384C10.1239 23.5029 9.47629 23.8036 9.01502 24.2649C8.55374 24.7261 8.253 25.3738 8.08858 26.5967C7.91932 27.8556 7.91667 29.5242 7.91667 31.9165L7.91667 36.9165C7.91667 37.6069 7.35702 38.1665 6.66667 38.1665C5.97631 38.1665 5.41666 37.6069 5.41666 36.9165L5.41666 31.8251C5.41663 29.5458 5.4166 27.7085 5.61087 26.2636C5.81257 24.7634 6.24406 23.5003 7.24725 22.4971C8.25044 21.4939 9.51357 21.0624 11.0137 20.8607C12.4587 20.6665 14.2959 20.6665 16.5752 20.6665Z" fill="white"/>
<path fill-rule="evenodd" clip-rule="evenodd" d="M12.9167 9.41634C12.9167 5.50432 16.088 2.33301 20 2.33301C23.912 2.33301 27.0833 5.50432 27.0833 9.41634L27.0833 11.083C27.0833 14.995 23.912 18.1663 20 18.1663C16.088 18.1663 12.9167 14.995 12.9167 11.083V9.41634ZM20 4.83301C17.4687 4.83301 15.4167 6.88504 15.4167 9.41634V11.083C15.4167 13.6143 17.4687 15.6663 20 15.6663C22.5313 15.6663 24.5833 13.6143 24.5833 11.083L24.5833 9.41634C24.5833 6.88504 22.5313 4.83301 20 4.83301Z" fill="white"/>
<path d="M27.9167 26.9163C27.9167 26.226 27.357 25.6663 26.6667 25.6663C25.9763 25.6663 25.4167 26.226 25.4167 26.9163V28.1663H24.1667C23.4763 28.1663 22.9167 28.726 22.9167 29.4163C22.9167 30.1067 23.4763 30.6663 24.1667 30.6663H25.4167V31.9163C25.4167 32.6067 25.9763 33.1663 26.6667 33.1663C27.357 33.1663 27.9167 32.6067 27.9167 31.9163V30.6663H29.1667C29.857 30.6663 30.4167 30.1067 30.4167 29.4163C30.4167 28.726 29.857 28.1663 29.1667 28.1663H27.9167V26.9163Z" fill="white"/>
</svg>
