<svg width="40" height="41" viewBox="0 0 40 41" fill="none" xmlns="http://www.w3.org/2000/svg">
<g opacity="0.1">
<path d="M33.3333 32.1422V37.1422L6.66666 37.1422L6.66666 32.1422C6.66666 27.4281 6.66666 25.0711 8.13113 23.6066C9.5956 22.1422 11.9526 22.1422 16.6667 22.1422L20 25.4755L23.3333 22.1422C28.0474 22.1422 30.4044 22.1422 31.8689 23.6066C33.3333 25.0711 33.3333 27.4281 33.3333 32.1422Z" fill="white"/>
<path d="M25.8333 9.64217L25.8333 11.3088C25.8333 14.5305 23.2217 17.1422 20 17.1422C16.7783 17.1422 14.1667 14.5305 14.1667 11.3088V9.64217C14.1667 6.42051 16.7783 3.80884 20 3.80884C23.2217 3.80884 25.8333 6.42051 25.8333 9.64217Z" fill="white"/>
</g>
<path d="M16.5752 20.8921H16.6667C16.9982 20.8921 17.3161 21.0238 17.5505 21.2582L20 23.7077L22.4495 21.2582C22.6839 21.0238 23.0018 20.8921 23.3333 20.8921H23.4248C25.7041 20.8921 27.5413 20.8921 28.9863 21.0863C30.4864 21.288 31.7496 21.7195 32.7527 22.7227C33.7559 23.7259 34.1874 24.989 34.3891 26.4892C34.5834 27.9341 34.5834 29.7714 34.5833 32.0507V37.1421C34.5833 37.8325 34.0237 38.3921 33.3333 38.3921C32.643 38.3921 32.0833 37.8325 32.0833 37.1421V32.1421C32.0833 29.7498 32.0807 28.0812 31.9114 26.8223C31.747 25.5994 31.4463 24.9517 30.985 24.4905C30.5237 24.0292 29.8761 23.7285 28.6531 23.564C28.4221 23.533 28.1772 23.5075 27.9167 23.4867L27.9167 30.3933C28.6639 30.8256 29.1667 31.6335 29.1667 32.5588C29.1667 33.9395 28.0474 35.0588 26.6667 35.0588C25.286 35.0588 24.1667 33.9395 24.1667 32.5588C24.1667 31.6335 24.6694 30.8256 25.4167 30.3933L25.4167 23.3983C24.9341 23.3938 24.4137 23.3925 23.851 23.3922L20.8839 26.3593C20.3957 26.8475 19.6043 26.8475 19.1161 26.3593L16.149 23.3922C15.8965 23.3924 15.6525 23.3927 15.4167 23.3934V27.7314C17.3404 28.2755 18.75 30.0442 18.75 32.1422V33.8088C18.75 34.4992 18.1904 35.0588 17.5 35.0588C16.8096 35.0588 16.25 34.4992 16.25 33.8088V32.1422C16.25 30.9916 15.3173 30.0588 14.1667 30.0588C13.0161 30.0588 12.0833 30.9916 12.0833 32.1422V33.8088C12.0833 34.4992 11.5237 35.0588 10.8333 35.0588C10.143 35.0588 9.58333 34.4992 9.58333 33.8088V32.1422C9.58333 30.0442 10.9929 28.2755 12.9167 27.7314L12.9167 23.4368C12.3277 23.4621 11.8096 23.5018 11.3469 23.564C10.1239 23.7285 9.47629 24.0292 9.01502 24.4905C8.55374 24.9517 8.253 25.5994 8.08858 26.8223C7.91932 28.0812 7.91667 29.7498 7.91667 32.1421L7.91667 37.1421C7.91667 37.8325 7.35702 38.3921 6.66667 38.3921C5.97631 38.3921 5.41666 37.8325 5.41666 37.1421L5.41666 32.0507C5.41663 29.7714 5.4166 27.9341 5.61087 26.4892C5.81257 24.989 6.24406 23.7259 7.24725 22.7227C8.25044 21.7195 9.51357 21.288 11.0137 21.0863C11.8641 20.972 12.8504 20.925 13.9827 20.9056C14.0427 20.8968 14.1042 20.8922 14.1667 20.8922C14.2165 20.8922 14.2657 20.8951 14.314 20.9008C15.0136 20.8921 15.7666 20.8921 16.5752 20.8921Z" fill="white"/>
<path fill-rule="evenodd" clip-rule="evenodd" d="M12.9167 9.64217C12.9167 5.73015 16.088 2.55884 20 2.55884C23.912 2.55884 27.0833 5.73015 27.0833 9.64217L27.0833 11.3088C27.0833 15.2209 23.912 18.3922 20 18.3922C16.088 18.3922 12.9167 15.2209 12.9167 11.3088V9.64217ZM20 5.05884C17.4687 5.05884 15.4167 7.11087 15.4167 9.64217V11.3088C15.4167 13.8401 17.4687 15.8922 20 15.8922C22.5313 15.8922 24.5833 13.8401 24.5833 11.3088L24.5833 9.64217C24.5833 7.11087 22.5313 5.05884 20 5.05884Z" fill="white"/>
</svg>
