<svg width="41" height="41" viewBox="0 0 41 41" fill="none" xmlns="http://www.w3.org/2000/svg">
<circle cx="20.8074" cy="20.4839" r="20" fill="#1AB5FD"/>
<rect width="24" height="24" transform="translate(8.80743 8.48389)" fill="#1AB5FD"/>
<path d="M18.8074 14.4839C18.8074 13.9316 19.2551 13.4839 19.8074 13.4839H24.3074C27.345 13.4839 29.8074 15.9463 29.8074 18.9839C29.8074 22.0215 27.345 24.4839 24.3074 24.4839L16.8074 24.4839L16.8074 26.4839C16.8074 26.8611 16.5952 27.2062 16.2585 27.3764C15.9219 27.5465 15.5182 27.5128 15.2144 27.2891L15.2036 27.2811L15.1762 27.2607C15.1526 27.2431 15.1187 27.2177 15.0758 27.1854C14.9902 27.1207 14.8688 27.0281 14.7235 26.9147C14.4338 26.6886 14.0443 26.3762 13.6518 26.0355C13.2643 25.699 12.8511 25.3153 12.5268 24.9483C12.3657 24.766 12.2054 24.5642 12.0799 24.3561C11.971 24.1754 11.8074 23.8612 11.8074 23.4839C11.8074 23.1066 11.971 22.7924 12.0799 22.6117C12.2054 22.4036 12.3657 22.2019 12.5268 22.0195C12.851 21.6525 13.2643 21.2688 13.6518 20.9323C14.0443 20.5916 14.4338 20.2792 14.7234 20.0531C14.8688 19.9397 14.9902 19.8471 15.0758 19.7824C15.1186 19.7501 15.1526 19.7247 15.1761 19.7071L15.2036 19.6867L15.2111 19.6811L15.2142 19.6788C15.5179 19.4551 15.9219 19.4213 16.2585 19.5914C16.5952 19.7616 16.8074 20.1067 16.8074 20.4839L16.8074 22.4839H24.3074C26.2404 22.4839 27.8074 20.9169 27.8074 18.9839C27.8074 17.0509 26.2404 15.4839 24.3074 15.4839H19.8074C19.2551 15.4839 18.8074 15.0362 18.8074 14.4839Z" fill="white"/>
</svg>
